<?xml version="1.0" encoding="UTF-8"?>
<!-- 2024-08-24 12:30:46 Generated by QCAD 3.28.2 SVG Exporter -->
<svg width="200mm" height="81mm" viewBox="-41 -2 200 81" version="1.1" xmlns="http://www.w3.org/2000/svg" style="stroke-linecap:round;stroke-linejoin:round;fill:none">
    <g transform="scale(1,-1)">
        <!-- Hatch -->
        <path d="M159,2 L159,-10 L-31,-10 L-31,-53 L-34.3057,-53 A2,2 0 0 0 -36.2785,-51.3288 L-41,-23 L-41,2 Z" style="fill:#ff00ff;fill-rule:evenodd;"/>
        <!-- Hatch -->
        <path d="M-14.7215,-77.3288 A2,2 0 0 0 -16.6943,-79 L-20,-79 L-20,-36 L-18,-36 L-18,-24 L-20,-24 L-20,-20 L-1,-20 A40.0031,40.0031 0 0 1 24,-20 L30,-20 A2,2 0 0 0 32,-22 L32,-39 A2,2 0 0 0 30,-41 L24,-41 A40.0031,40.0031 0 0 1 -1,-41 L-10,-41 L-10,-49 ZM-4,-36 L-6,-36 L-6,-24 L-4,-24 ZM-10,-24 L-10,-36 L-8,-36 L-8,-24 ZM24,-26 L24,-34 A2,2 0 0 0 22,-36 L1,-36 A2,2 0 0 0 -1,-34 L-1,-26 ZM27,-36 L29,-36 L29,-24 L27,-24 Z" style="fill:#ff00ff;fill-rule:evenodd;"/>
        <!-- Line -->
        <path d="M0,-6 L0,0 " style="stroke:#00ffff;stroke-width:0.25;"/>
        <!-- Line -->
        <path d="M70,-6 L70,0 " style="stroke:#00ffff;stroke-width:0.25;"/>
        <!-- Line -->
        <path d="M10,-6 L10,0 " style="stroke:#00ffff;stroke-width:0.25;"/>
        <!-- Line -->
        <path d="M80,-6 L80,0 " style="stroke:#00ffff;stroke-width:0.25;"/>
        <!-- Line -->
        <path d="M20,-6 L20,0 " style="stroke:#00ffff;stroke-width:0.25;"/>
        <!-- Line -->
        <path d="M90,-6 L90,0 " style="stroke:#00ffff;stroke-width:0.25;"/>
        <!-- Line -->
        <path d="M30,-6 L30,0 " style="stroke:#00ffff;stroke-width:0.25;"/>
        <!-- Line -->
        <path d="M100,-6 L100,0 " style="stroke:#00ffff;stroke-width:0.25;"/>
        <!-- Line -->
        <path d="M40,-6 L40,0 " style="stroke:#00ffff;stroke-width:0.25;"/>
        <!-- Line -->
        <path d="M110,-6 L110,0 " style="stroke:#00ffff;stroke-width:0.25;"/>
        <!-- Line -->
        <path d="M140,-6 L140,0 " style="stroke:#00ffff;stroke-width:0.25;"/>
        <!-- Line -->
        <path d="M50,-6 L50,0 " style="stroke:#00ffff;stroke-width:0.25;"/>
        <!-- Line -->
        <path d="M120,-6 L120,0 " style="stroke:#00ffff;stroke-width:0.25;"/>
        <!-- Line -->
        <path d="M150,-6 L150,0 " style="stroke:#00ffff;stroke-width:0.25;"/>
        <!-- Line -->
        <path d="M60,-6 L60,0 " style="stroke:#00ffff;stroke-width:0.25;"/>
        <!-- Line -->
        <path d="M130,-6 L130,0 " style="stroke:#00ffff;stroke-width:0.25;"/>
        <!-- Line -->
        <path d="M5,0 L5,-4 " style="stroke:#00ffff;stroke-width:0.25;"/>
        <!-- Line -->
        <path d="M15,0 L15,-4 " style="stroke:#00ffff;stroke-width:0.25;"/>
        <!-- Line -->
        <path d="M25,0 L25,-4 " style="stroke:#00ffff;stroke-width:0.25;"/>
        <!-- Line -->
        <path d="M35,0 L35,-4 " style="stroke:#00ffff;stroke-width:0.25;"/>
        <!-- Line -->
        <path d="M45,0 L45,-4 " style="stroke:#00ffff;stroke-width:0.25;"/>
        <!-- Line -->
        <path d="M55,0 L55,-4 " style="stroke:#00ffff;stroke-width:0.25;"/>
        <!-- Line -->
        <path d="M65,0 L65,-4 " style="stroke:#00ffff;stroke-width:0.25;"/>
        <!-- Line -->
        <path d="M75,0 L75,-4 " style="stroke:#00ffff;stroke-width:0.25;"/>
        <!-- Line -->
        <path d="M85,0 L85,-4 " style="stroke:#00ffff;stroke-width:0.25;"/>
        <!-- Line -->
        <path d="M95,0 L95,-4 " style="stroke:#00ffff;stroke-width:0.25;"/>
        <!-- Line -->
        <path d="M105,0 L105,-4 " style="stroke:#00ffff;stroke-width:0.25;"/>
        <!-- Line -->
        <path d="M115,0 L115,-4 " style="stroke:#00ffff;stroke-width:0.25;"/>
        <!-- Line -->
        <path d="M145,0 L145,-4 " style="stroke:#00ffff;stroke-width:0.25;"/>
        <!-- Line -->
        <path d="M125,0 L125,-4 " style="stroke:#00ffff;stroke-width:0.25;"/>
        <!-- Line -->
        <path d="M135,0 L135,-4 " style="stroke:#00ffff;stroke-width:0.25;"/>
        <!-- Line -->
        <path d="M11.5,-26 L11.5,-24 " style="stroke:#00ffff;stroke-width:0.25;"/>
    </g>
</svg>
