<?xml version="1.0" encoding="UTF-8" standalone="no"?>
<!-- 2024-08-24 12:31:44 Generated by QCAD 3.28.2 SVG Exporter -->

<svg
   width="300"
   height="120"
   viewBox="-100 -37.5 300 120"
   version="1.1"
   style="fill:none;stroke-linecap:round;stroke-linejoin:round"
   id="svg76"
   sodipodi:docname="thumbnail.svg"
   inkscape:version="1.3.2 (091e20e, 2023-11-25, custom)"
   inkscape:export-filename="thumbnail.png"
   inkscape:export-xdpi="384"
   inkscape:export-ydpi="384"
   xmlns:inkscape="http://www.inkscape.org/namespaces/inkscape"
   xmlns:sodipodi="http://sodipodi.sourceforge.net/DTD/sodipodi-0.dtd"
   xmlns:xlink="http://www.w3.org/1999/xlink"
   xmlns="http://www.w3.org/2000/svg"
   xmlns:svg="http://www.w3.org/2000/svg">
  <defs
     id="defs76">
    <linearGradient
       id="linearGradient81"
       inkscape:collect="always">
      <stop
         style="stop-color:#808080;stop-opacity:1;"
         offset="0"
         id="stop82" />
      <stop
         style="stop-color:#808080;stop-opacity:0;"
         offset="1"
         id="stop83" />
    </linearGradient>
    <linearGradient
       inkscape:collect="always"
       xlink:href="#linearGradient81"
       id="linearGradient83"
       x1="-29"
       y1="4"
       x2="-31"
       y2="4"
       gradientUnits="userSpaceOnUse" />
    <linearGradient
       inkscape:collect="always"
       xlink:href="#linearGradient81"
       id="linearGradient85"
       gradientUnits="userSpaceOnUse"
       x1="-29"
       y1="4"
       x2="-31"
       y2="4"
       gradientTransform="translate(13)" />
    <linearGradient
       inkscape:collect="always"
       xlink:href="#linearGradient81"
       id="linearGradient86"
       gradientUnits="userSpaceOnUse"
       x1="-29"
       y1="4"
       x2="-31"
       y2="4"
       gradientTransform="translate(14.000001)" />
    <linearGradient
       inkscape:collect="always"
       xlink:href="#linearGradient81"
       id="linearGradient87"
       gradientUnits="userSpaceOnUse"
       gradientTransform="translate(50.000001)"
       x1="-29"
       y1="4"
       x2="-31"
       y2="4" />
  </defs>
  <sodipodi:namedview
     id="namedview76"
     pagecolor="#ffffff"
     bordercolor="#000000"
     borderopacity="0.25"
     inkscape:showpageshadow="2"
     inkscape:pageopacity="0.0"
     inkscape:pagecheckerboard="0"
     inkscape:deskcolor="#d1d1d1"
     inkscape:document-units="mm"
     inkscape:zoom="2.4870833"
     inkscape:cx="122.63361"
     inkscape:cy="40.006701"
     inkscape:window-width="1920"
     inkscape:window-height="1001"
     inkscape:window-x="-9"
     inkscape:window-y="-9"
     inkscape:window-maximized="1"
     inkscape:current-layer="svg76"
     inkscape:export-bgcolor="#ffffffff" />
  <rect
     style="fill:url(#linearGradient87);fill-opacity:1;stroke:none;stroke-width:0.25;stroke-dasharray:none;stroke-opacity:1;paint-order:stroke fill markers"
     id="rect87"
     width="2"
     height="12"
     x="19"
     y="-2"
     transform="scale(-1,1)" />
  <rect
     style="fill:url(#linearGradient86);fill-opacity:1;stroke:none;stroke-width:0.25;stroke-dasharray:none;stroke-opacity:1;paint-order:stroke fill markers"
     id="rect86"
     width="2"
     height="12"
     x="-17"
     y="-1.9999999" />
  <rect
     style="fill:url(#linearGradient85);fill-opacity:1;stroke:none;stroke-width:0.25;stroke-dasharray:none;stroke-opacity:1;paint-order:stroke fill markers"
     id="rect85"
     width="2"
     height="12"
     x="-18"
     y="-2"
     transform="scale(-1,1)" />
  <rect
     style="fill:url(#linearGradient83);fill-opacity:1;stroke:none;stroke-width:0.25;stroke-dasharray:none;stroke-opacity:1;paint-order:stroke fill markers"
     id="rect81"
     width="2"
     height="12"
     x="-31"
     y="-1.9999999" />
  <path
     d="M 0,6 V 0"
     style="stroke:#000000;stroke-width:0.25"
     id="path1" />
  <path
     d="M 70,6 V 0"
     style="stroke:#000000;stroke-width:0.25"
     id="path2" />
  <path
     d="M 10,6 V 0"
     style="stroke:#000000;stroke-width:0.25"
     id="path3" />
  <path
     d="M 80,6 V 0"
     style="stroke:#000000;stroke-width:0.25"
     id="path4" />
  <path
     d="M 20,6 V 0"
     style="stroke:#000000;stroke-width:0.25"
     id="path5" />
  <path
     d="M 90,6 V 0"
     style="stroke:#000000;stroke-width:0.25"
     id="path6" />
  <path
     d="M 30,6 V 0"
     style="stroke:#000000;stroke-width:0.25"
     id="path7" />
  <path
     d="M 100,6 V 0"
     style="stroke:#000000;stroke-width:0.25"
     id="path8" />
  <path
     d="M 40,6 V 0"
     style="stroke:#000000;stroke-width:0.25"
     id="path9" />
  <path
     d="M 110,6 V 0"
     style="stroke:#000000;stroke-width:0.25"
     id="path10" />
  <path
     d="M 140,6 V 0"
     style="stroke:#000000;stroke-width:0.25"
     id="path11" />
  <path
     d="M 50,6 V 0"
     style="stroke:#000000;stroke-width:0.25"
     id="path12" />
  <path
     d="M 120,6 V 0"
     style="stroke:#000000;stroke-width:0.25"
     id="path13" />
  <path
     d="M 150,6 V 0"
     style="stroke:#000000;stroke-width:0.25"
     id="path14" />
  <path
     d="M 60,6 V 0"
     style="stroke:#000000;stroke-width:0.25"
     id="path15" />
  <path
     d="M 130,6 V 0"
     style="stroke:#000000;stroke-width:0.25"
     id="path16" />
  <path
     d="M 5,0 V 4"
     style="stroke:#000000;stroke-width:0.25"
     id="path17" />
  <path
     d="M 15,0 V 4"
     style="stroke:#000000;stroke-width:0.25"
     id="path18" />
  <path
     d="M 25,0 V 4"
     style="stroke:#000000;stroke-width:0.25"
     id="path19" />
  <path
     d="M 35,0 V 4"
     style="stroke:#000000;stroke-width:0.25"
     id="path20" />
  <path
     d="M 45,0 V 4"
     style="stroke:#000000;stroke-width:0.25"
     id="path21" />
  <path
     d="M 55,0 V 4"
     style="stroke:#000000;stroke-width:0.25"
     id="path22" />
  <path
     d="M 65,0 V 4"
     style="stroke:#000000;stroke-width:0.25"
     id="path23" />
  <path
     d="M 75,0 V 4"
     style="stroke:#000000;stroke-width:0.25"
     id="path24" />
  <path
     d="M 85,0 V 4"
     style="stroke:#000000;stroke-width:0.25"
     id="path25" />
  <path
     d="M 95,0 V 4"
     style="stroke:#000000;stroke-width:0.25"
     id="path26" />
  <path
     d="M 105,0 V 4"
     style="stroke:#000000;stroke-width:0.25"
     id="path27" />
  <path
     d="M 115,0 V 4"
     style="stroke:#000000;stroke-width:0.25"
     id="path28" />
  <path
     d="M 145,0 V 4"
     style="stroke:#000000;stroke-width:0.25"
     id="path29" />
  <path
     d="M 125,0 V 4"
     style="stroke:#000000;stroke-width:0.25"
     id="path30" />
  <path
     d="M 159,-2 V 10"
     style="stroke:#000000;stroke-width:0.25"
     id="path32" />
  <path
     d="M 135,0 V 4"
     style="stroke:#000000;stroke-width:0.25"
     id="path34" />
  <path
     d="M -41,-2 V 23"
     style="stroke:#000000;stroke-width:0.25"
     id="path35" />
  <path
     d="M -31,10 V 53"
     style="stroke:#000000;stroke-width:0.25"
     id="path36" />
  <path
     d="M -31,10 V 53"
     style="stroke:#000000;stroke-width:0.25"
     id="path37" />
  <path
     d="m -31,53 h -3.3057"
     style="stroke:#000000;stroke-width:0.25"
     id="path38" />
  <path
     d="m -31,53 h 3.3057"
     style="stroke:#000000;stroke-width:0.25"
     id="path39" />
  <path
     d="m -41,23 4.7215,28.3288"
     style="stroke:#000000;stroke-width:0.25"
     id="path40" />
  <path
     d="m -21,23 -4.7215,28.3288"
     style="stroke:#000000;stroke-width:0.25"
     id="path41" />
  <path
     d="m -31,10 h 2"
     style="stroke:#000000;stroke-width:0.25"
     id="path42" />
  <path
     d="M -29,10 V -2"
     style="stroke:#000000;stroke-width:0.25"
     id="path43" />
  <path
     d="M -29,-2 H -41"
     style="stroke:#000000;stroke-width:0.25"
     id="path44"
     sodipodi:nodetypes="cc" />
  <path
     d="M -31,-2 V -6"
     style="stroke:#000000;stroke-width:0.25"
     id="path45" />
  <path
     d="m -31,-6 h 19"
     style="stroke:#000000;stroke-width:0.25"
     id="path46" />
  <path
     d="m -12,15 h -9"
     style="stroke:#000000;stroke-width:0.25"
     id="path48" />
  <path
     d="m -21,15 v 8"
     style="stroke:#000000;stroke-width:0.25"
     id="path49" />
  <path
     d="M -12,0 H 13"
     style="stroke:#000000;stroke-width:0.25"
     id="path50" />
  <path
     d="M 0,0 V -2"
     style="stroke:#000000;stroke-width:0.25"
     id="path51" />
  <path
     d="M 13,0 V 8"
     style="stroke:#000000;stroke-width:0.25"
     id="path52" />
  <path
     d="M -12,8 V 0"
     style="stroke:#000000;stroke-width:0.25"
     id="path53" />
  <path
     d="M 11,10 H -10"
     style="stroke:#000000;stroke-width:0.25"
     id="path54" />
  <path
     d="m -12,8 a 2,2 0 0 0 2,2"
     style="stroke:#000000;stroke-width:0.25"
     id="path55" />
  <path
     d="m 13,8 a 2,2 0 0 1 -2,2"
     style="stroke:#000000;stroke-width:0.25"
     id="path56" />
  <path
     d="m 19,-6 a 2,2 0 0 1 2,2"
     style="stroke:#000000;stroke-width:0.25"
     id="path57" />
  <path
     d="m 21,13 a 2,2 0 0 1 -2,2"
     style="stroke:#000000;stroke-width:0.25"
     id="path58" />
  <path
     d="M -25.7215,51.3288 A 2,2 0 0 1 -27.6943,53"
     style="stroke:#000000;stroke-width:0.25"
     id="path59" />
  <path
     d="M -36.2785,51.3288 A 2,2 0 0 0 -34.3057,53"
     style="stroke:#000000;stroke-width:0.25"
     id="path60" />
  <path
     d="M -15,-2 V 10"
     style="stroke:#000000;stroke-width:0.25"
     id="path61" />
  <path
     d="M -15,-1.9999999 -21,-2"
     style="stroke:#000000;stroke-width:0.25"
     id="path65"
     sodipodi:nodetypes="cc" />
  <path
     d="M -21,-2 V 10"
     style="stroke:#000000;stroke-width:0.25"
     id="path66" />
  <path
     d="m -21,10 h 6"
     style="stroke:#000000;stroke-width:0.25"
     id="path67"
     sodipodi:nodetypes="cc" />
  <path
     d="M 16,-2 V 10"
     style="stroke:#000000;stroke-width:0.25"
     id="path69" />
  <path
     d="m 13,-6 h 6"
     style="stroke:#000000;stroke-width:0.25"
     id="path73" />
  <path
     d="M 19,15 H 13"
     style="stroke:#000000;stroke-width:0.25"
     id="path74" />
  <path
     d="m -12,15 a 40.0031,40.0031 0 0 1 25,0"
     style="stroke:#000000;stroke-width:0.25"
     id="path75" />
  <path
     d="m -12,-6 a 40.0031,40.0031 0 0 0 25,0"
     style="stroke:#000000;stroke-width:0.25"
     id="path76" />
  <path
     style="fill:#800000;fill-opacity:1;stroke:#000000;stroke-width:0.25;stroke-dasharray:none;stroke-opacity:1;paint-order:stroke fill markers"
     d="m 21,-4 v 1.9999999"
     id="path77" />
  <path
     style="fill:#800000;fill-opacity:1;stroke:#000000;stroke-width:0.25;stroke-dasharray:none;stroke-opacity:1;paint-order:stroke fill markers"
     d="M 21,13 V 9.9999998"
     id="path78" />
  <path
     style="fill:#808080;fill-opacity:1;stroke:#000000;stroke-width:0.25;stroke-dasharray:none;stroke-opacity:1;paint-order:stroke fill markers"
     d="m 16,10 143,-2e-7"
     id="path83"
     sodipodi:nodetypes="cc" />
  <path
     style="fill:#808080;fill-opacity:1;stroke:#000000;stroke-width:0.25;stroke-dasharray:none;stroke-opacity:1;paint-order:stroke fill markers"
     d="m 16,-2 143,-10e-8"
     id="path84"
     sodipodi:nodetypes="cc" />
</svg>
